<svg viewBox="0 0 512 512" xmlns="http://www.w3.org/2000/svg"><g id="Layer_10" data-name="Layer 10"><g id="VERIFIED"><path d="m490.29 205.11q-15.94-15.44-32-31.09-.45-21.69-1.13-43.36c-.6-19.35-8.95-37.81-23.31-52.16s-32.85-22.64-52.19-23.25q-21.72-.68-43.44-1.12-15.64-15.94-31.1-31.84c-13.83-14.23-31.82-22.17-50.96-22.16s-37.12 8-50.92 22.16q-15.47 15.93-31.15 31.9-21.72.45-43.43 1.13c-39.87 1.35-74.19 35.59-75.55 75.4q-.68 21.67-1.12 43.36-15.99 15.64-31.99 31.07c-14.15 13.78-22.12 31.75-22.12 50.85s7.92 37 22.12 50.82q15.95 15.42 32 31 .43 21.7 1.12 43.39c.61 19.39 9 37.8 23.3 52.16s32.85 22.64 52.25 23.25q21.72.68 43.45 1.13 15.64 15.91 31.1 31.81c13.83 14.23 31.83 22.17 51 22.17s37.13-7.94 51-22.15q15.44-15.92 31.11-31.88 21.72-.45 43.43-1.13c39.87-1.36 74.19-35.63 75.55-75.4q.67-21.68 1.13-43.35 16-15.64 31.94-31.09c14.11-13.73 22.09-31.73 22.08-50.73s-7.97-37.1-22.17-50.89z" fill="#4193d2"/><path d="m338.22 54.13q-15.64-15.94-31.1-31.84c-13.83-14.23-31.82-22.17-50.96-22.16s-37.12 8-50.92 22.16q-15.47 15.93-31.15 31.9-21.72.45-43.43 1.13c-39.87 1.35-74.19 35.59-75.55 75.4q-.68 21.67-1.12 43.36-15.99 15.64-31.99 31.07c-14.15 13.78-22.12 31.75-22.12 50.85s7.92 37 22.12 50.82q15.95 15.42 32 31 .38 18.75.95 37.49a280.33 280.33 0 0 0 53.39 5.12c153.89.04 278.66-124.72 278.66-278.62a280.33 280.33 0 0 0 -3.87-46.48l-1.46-.08q-21.73-.67-43.45-1.12z" fill="#48a4df"/><path d="m383.61 223.52c-43.18 44.87-87.05 90.74-130.19 136.24a37.6 37.6 0 0 1 -27.27 11.78h-.15a38.26 38.26 0 0 1 -27.3-11.73q-34.6-35.71-69.42-71.19a37.36 37.36 0 0 1 .76-53.43 38.36 38.36 0 0 1 54 .67q20.69 21.21 41.43 42.54c34.25-35.89 68.67-72 102.55-107.54 14.38-15.14 38.37-15.38 53.79-.78s16.29 38.39 1.8 53.44z" fill="#fff"/></g></g></svg>