<svg width="600" height="185" viewBox="0 0 600 185" fill="none" xmlns="http://www.w3.org/2000/svg">
<path d="M531.839 0.326355C485.724 0.326355 448.32 37.7475 448.32 83.9353V93.3314L495.809 93.0749C494.761 98.3442 491.849 103.17 487.284 106.598C483.372 109.536 478.527 110.958 473.66 110.958H448.087V129.657H473.45C483.721 129.657 493.759 126.066 501.398 119.165C509.084 112.217 513.695 102.844 514.72 92.9583L541.993 92.7951C537.428 124.154 510.388 148.286 477.829 148.286H431.015V19.0719H462.178V0.372985H429.152C419.859 0.372985 412.313 7.92717 412.313 17.23V150.174C412.313 159.477 419.836 167.031 429.152 167.031H477.829C523.943 167.031 561.347 129.61 561.347 83.4223V74.0262L514.58 74.2827C515.652 69.0601 518.586 64.2571 523.128 60.8764C527.041 57.9619 531.839 56.5397 536.706 56.5397H561.697V37.8408H536.916C526.668 37.8408 516.653 41.4314 509.014 48.2861C501.328 55.2107 496.717 64.5369 495.669 74.3993L467.697 74.5625C472.262 43.2033 499.302 19.0719 531.862 19.0719H580.422V148.356H549.26V167.055H582.285C591.578 167.055 599.124 159.524 599.124 150.198V17.1834C599.124 7.88053 591.601 0.326355 582.285 0.326355H531.862H531.839Z" fill="#2F3D47"/>
<path d="M102.228 71.4849V78.1298C102.228 78.6894 101.809 78.9692 101.389 78.9692H92.8185C86.7398 78.9692 81.7557 73.9797 81.7557 67.8944V50.8508C81.7557 40.0325 76.7716 38.0973 71.6477 37.9574C66.6636 38.0973 61.5398 43.5065 61.5398 54.3015C61.5398 65.0965 66.6636 70.5057 71.6477 70.6456V78.9692H26.6511C13.3524 78.8293 0.0769653 70.7855 0.0769653 54.3015C0.0769653 47.9364 2.01005 42.807 5.20081 38.9134L17.8008 45.838C16.9624 48.1929 16.5664 50.9674 16.5664 54.3015C16.5664 65.1198 21.5505 70.5057 26.6744 70.6456H51.1756C47.4492 66.6353 45.0969 61.2262 45.0969 54.3015C45.0969 37.8175 58.3956 29.6339 71.671 29.6339C84.9464 29.6339 98.2451 34.3436 98.2451 50.8275V70.6456H101.436C101.855 70.6456 102.274 71.0653 102.274 71.4849H102.228ZM37.7372 83.6789L47.1464 93.0983L37.7372 102.518L28.328 93.0983L37.7372 83.6789ZM57.3708 83.6789L66.7801 93.0983L57.3708 102.518L47.9616 93.0983L57.3708 83.6789Z" fill="#2F3D47"/>
<path d="M137.373 71.485V78.1298C137.373 78.6894 136.954 78.9692 136.534 78.9692H124.913C120.627 78.9692 116.738 76.4744 114.944 72.744L109.122 78.9692H101.366C100.947 78.9692 100.528 78.6894 100.528 78.1298V71.485C100.528 71.0653 100.947 70.6456 101.366 70.6456H114.246C113.966 69.8062 113.826 68.8503 113.826 67.8711V42.1076L130.293 33.3876V70.6689H136.511C136.93 70.6689 137.349 71.0886 137.349 71.5083L137.373 71.485ZM114.269 31.7089L104.86 22.2895L114.269 12.8701L123.818 22.2895L114.269 31.7089Z" fill="#2F3D47"/>
<path d="M172.541 71.485V78.1298C172.541 78.6894 172.122 78.9692 171.702 78.9692H160.081C155.795 78.9692 151.906 76.4744 150.112 72.744L144.29 78.9692H136.534C136.115 78.9692 135.696 78.6894 135.696 78.1298V71.485C135.696 71.0653 136.115 70.6456 136.534 70.6456H149.414C149.134 69.8062 148.994 68.8503 148.994 67.8711V22.7092L165.461 13.9893V70.6689H171.679C172.098 70.6689 172.517 71.0886 172.517 71.5083L172.541 71.485Z" fill="#2F3D47"/>
<path d="M236.892 71.4849V78.1298C236.892 78.6893 236.472 78.9691 236.053 78.9691H171.702C171.283 78.9691 170.864 78.6893 170.864 78.1298V71.4849C170.864 71.0652 171.283 70.6455 171.702 70.6455H186.934C183.324 66.6353 180.972 61.2261 180.972 54.3015C180.972 37.9574 194.271 29.7737 207.546 29.6338C218.353 29.7737 229.136 35.1828 232.886 45.9779L217.654 54.3015C217.654 43.4831 212.53 38.0973 207.546 37.9574C202.422 38.0973 197.438 43.5064 197.438 54.3015C197.438 65.0965 202.422 70.5056 207.546 70.6455H236.053C236.472 70.6455 236.892 71.0652 236.892 71.4849ZM207.546 25.9033L197.997 16.344L207.546 6.92462L216.955 16.344L207.546 25.9033Z" fill="#2F3D47"/>
<path d="M325.744 33.3876V61.9256C325.744 70.7855 321.179 78.9692 307.205 78.9692H294.325L290.715 75.0988C287.804 77.4537 283.519 78.9692 277.556 78.9692H264.816L261.207 75.0988C258.295 77.4537 254.01 78.9692 248.048 78.9692H236.007C235.587 78.9692 235.168 78.6894 235.168 78.1298V71.4849C235.168 71.0652 235.587 70.6456 236.007 70.6456H241.27C250.679 70.6456 250.12 66.0758 250.12 58.5915V42.1076L266.587 33.3876V61.9256C266.587 64.9799 266.028 68.0109 264.653 70.6456H270.732C280.141 70.6456 279.582 66.0758 279.582 58.5915V42.1076L296.049 33.3876V61.9256C296.049 64.9799 295.49 68.0109 294.116 70.6456H300.334C309.743 70.6456 309.184 66.0758 309.184 58.5915V42.1076L325.65 33.3876H325.744ZM282.144 31.5923L272.595 22.1729L282.144 12.6136L291.554 22.1729L282.144 31.5923ZM292.113 18.9787L282.564 9.5593L292.113 0L301.522 9.5593L292.113 18.9787ZM292.252 22.1496L301.801 12.5903L311.211 22.1496L301.801 31.569L292.252 22.1496Z" fill="#2F3D47"/>
<path d="M46.3313 152.459C46.3313 161.249 37.5509 166.728 27.2566 166.145C18.8256 165.632 12.0714 160.806 10.0452 154.698L15.4485 153.462C16.6829 157.146 21.993 161.039 27.2566 161.039C33.5915 161.039 40.7183 158.451 40.7183 152.179C40.7183 146.91 35.2451 143.11 28.7705 143.11C28.6307 143.11 28.328 143.11 28.1882 143.04C18.9653 142.387 11.559 137.071 11.559 128.048C11.559 119.981 19.8969 113.779 30.0514 114.292C37.1084 114.805 42.861 118.046 45.8189 122.662L40.2758 124.388C38.6921 122.009 33.3586 119.351 29.7021 119.351C22.715 119.351 17.2418 122.522 17.1021 127.558C16.5897 133.9 21.1313 137.654 28.8403 138.074C39.1346 138.657 46.3313 144.345 46.3313 152.483V152.459Z" fill="#2F3D47"/>
<path d="M57.7666 165.422H52.5962V114.991H57.7666V134.087C58.2091 133.504 58.9078 133.014 59.56 132.501C62.0753 130.263 67.0361 129.26 70.2036 129.26C79.7758 129.26 86.8328 134.809 86.8328 145.185V165.353H81.7322V145.185C81.7322 139.053 77.9126 134.366 70.2269 134.366C63.8221 134.366 57.9296 138.843 57.7666 145.185V165.422Z" fill="#2F3D47"/>
<path d="M129.151 129.4V165.423H124.33V160.153C123.748 161.016 122.397 161.949 121.535 162.601C118.368 165.049 114.688 166.215 110.24 166.215C100.085 166.215 91.8171 157.868 91.8171 147.773C91.8171 137.677 100.085 129.19 110.24 129.19C114.548 129.19 119.23 131.499 121.838 133.667C122.77 134.809 123.492 135.322 124.004 135.765V129.424H129.175L129.151 129.4ZM124.4 147.913C124.4 140.498 117.623 133.784 110.147 133.784C102.67 133.784 96.4053 140.335 96.4053 147.843C96.4053 155.35 102.6 161.529 109.937 161.529C117.273 161.529 124.4 155.327 124.4 147.913Z" fill="#2F3D47"/>
<path d="M168.162 160.806C164.855 163.837 159.033 165.912 153.979 165.912C143.824 165.912 135.556 157.635 135.556 147.47C135.556 137.304 143.824 128.887 153.979 128.887C160.104 128.887 165.065 131.615 166.788 133.271C167.068 133.62 167.51 133.993 168.023 134.413V128.864H173.123V165.259C173.123 176.078 164.343 184.425 154.701 184.425C146.06 184.425 140.167 180.251 137.21 172.394L142.823 170.948C144.197 175.425 148.226 179.085 154.421 179.085C162.27 179.085 168.162 172.301 168.162 165.026V160.783V160.806ZM168.814 147.563C168.814 139.776 161.967 133.807 154.142 133.807C146.316 133.807 140.54 139.799 140.54 147.563C140.54 155.327 146.293 160.899 154.142 160.899C161.99 160.899 168.814 155.28 168.814 147.563Z" fill="#2F3D47"/>
<path d="M186.818 165.422H181.647V114.991H186.818V134.087C187.26 133.504 187.959 133.014 188.611 132.501C191.126 130.263 196.087 129.26 199.255 129.26C208.827 129.26 215.884 134.809 215.884 145.185V165.353H210.783V145.185C210.783 139.053 206.964 134.366 199.278 134.366C192.873 134.366 186.981 138.843 186.818 145.185V165.422Z" fill="#2F3D47"/>
<path d="M258.202 129.4V165.423H253.381V160.153C252.799 161.016 251.448 161.949 250.586 162.601C247.419 165.049 243.739 166.215 239.29 166.215C229.136 166.215 220.868 157.868 220.868 147.773C220.868 137.677 229.136 129.19 239.29 129.19C243.599 129.19 248.28 131.499 250.889 133.667C251.821 134.809 252.543 135.322 253.055 135.765V129.424H258.225L258.202 129.4ZM253.451 147.913C253.451 140.498 246.673 133.784 239.197 133.784C231.721 133.784 225.456 140.335 225.456 147.843C225.456 155.35 231.651 161.529 238.988 161.529C246.324 161.529 253.451 155.327 253.451 147.913Z" fill="#2F3D47"/>
<path d="M272.083 165.422H266.68V114.991H272.083V165.422Z" fill="#2F3D47"/>
<path d="M286.267 165.423H281.003V129.4H286.267V133.877C286.686 133.364 287.338 132.501 287.851 132.151C290.436 129.913 294.698 129.12 298.354 129.12C310.954 129.12 315.845 135.975 315.845 145.838V165.353H310.885V144.159C310.885 137.677 305.994 133.854 298.727 133.854C292.392 133.854 286.43 137.374 286.267 143.716V165.399V165.423Z" fill="#2F3D47"/>
<path d="M328.166 120.097H322.902V114.991H328.166V120.097ZM328.236 129.4V165.422H323.065V129.4H328.236Z" fill="#2F3D47"/>
</svg>
