<svg width="267" height="258" viewBox="0 0 267 258" fill="none" xmlns="http://www.w3.org/2000/svg">
<g filter="url(#filter0_d_5_1128)">
<path d="M137.701 239.402C201.049 239.402 252.402 188.049 252.402 124.701C252.402 61.3534 201.049 10 137.701 10C74.3534 10 23 61.3534 23 124.701C23 188.049 74.3534 239.402 137.701 239.402Z" fill="url(#paint0_linear_5_1128)"/>
<path fill-rule="evenodd" clip-rule="evenodd" d="M179.93 181.576C179.837 181.517 179.726 181.483 179.608 181.483C179.273 181.483 179.002 181.754 179.002 182.089V238.395C179.002 238.729 179.273 239 179.608 239C179.942 239 180.213 238.729 180.213 238.395V227.579C187.984 217.534 196.547 215.018 203.166 214.991C206.517 214.977 209.383 215.602 211.412 216.231C212.426 216.545 213.228 216.859 213.775 217.094C214.048 217.211 214.257 217.309 214.397 217.376C214.455 217.404 214.501 217.427 214.535 217.444L221.872 224.781C222.072 224.981 222.397 224.981 222.597 224.781C222.798 224.581 222.798 224.256 222.597 224.056L215.261 216.72C215.245 216.687 215.223 216.642 215.196 216.586C215.13 216.448 215.035 216.243 214.921 215.974C214.693 215.436 214.388 214.646 214.084 213.647C213.478 211.648 212.881 208.821 212.923 205.51C213.006 198.939 215.599 190.403 225.759 182.602H237.4C237.683 182.602 237.913 182.372 237.913 182.089C237.913 181.806 237.683 181.576 237.4 181.576H225.591H225.58H179.93ZM212.65 215.559L203.367 206.276L203.345 206.272C203.221 206.25 203.037 206.219 202.798 206.186C202.321 206.119 201.629 206.041 200.776 205.998C199.069 205.912 196.729 205.968 194.192 206.53C189.209 207.634 183.458 210.687 180.213 218.525V225.933C187.973 216.468 196.477 213.992 203.161 213.965C206.64 213.951 209.613 214.599 211.715 215.251C212.049 215.354 212.361 215.458 212.65 215.559ZM204.053 205.511C204.018 205.462 203.975 205.418 203.924 205.383L203.596 205.055C203.587 205.003 203.577 204.947 203.567 204.888C203.491 204.431 203.399 203.767 203.338 202.947C203.217 201.306 203.224 199.05 203.733 196.588C204.744 191.699 207.732 185.976 215.714 182.602H224.105C214.535 190.383 211.981 198.856 211.898 205.497C211.854 208.937 212.473 211.871 213.103 213.945C213.202 214.27 213.301 214.574 213.398 214.856L204.053 205.511ZM202.316 203.022C202.337 203.318 202.363 203.594 202.391 203.849L195.533 196.992C195.516 196.92 195.493 196.817 195.466 196.688C195.409 196.403 195.339 195.988 195.29 195.474C195.191 194.445 195.176 193.031 195.508 191.486C196.166 188.424 198.194 184.789 203.811 182.602H213.311C206.45 186.197 203.706 191.656 202.729 196.38C202.196 198.959 202.19 201.314 202.316 203.022ZM202.168 205.076C201.78 205.036 201.33 204.999 200.827 204.974C199.055 204.885 196.62 204.942 193.97 205.529C189.188 206.588 183.715 209.376 180.213 216.097V205.536C182.419 200.196 186.044 198.262 189.128 197.641C190.717 197.321 192.174 197.348 193.236 197.457C193.766 197.511 194.195 197.585 194.489 197.645C194.625 197.673 194.732 197.697 194.807 197.715L202.168 205.076ZM188.925 196.635C185.962 197.232 182.584 198.947 180.213 203.179V183.122L193.551 196.459C193.482 196.451 193.412 196.444 193.34 196.436C192.206 196.321 190.641 196.29 188.925 196.635ZM201.347 182.602H181.143L194.287 195.745C194.281 195.689 194.275 195.631 194.269 195.573C194.163 194.469 194.145 192.945 194.505 191.27C195.138 188.323 196.933 184.954 201.347 182.602Z" fill="url(#paint1_linear_5_1128)"/>
<path fill-rule="evenodd" clip-rule="evenodd" d="M137.882 22.7915C137.309 22.555 136.695 22.4338 136.075 22.4349L136.07 22.4349C134.818 22.436 133.618 22.9337 132.733 23.8187C131.849 24.7032 131.351 25.9023 131.349 27.1532V33.0926H119.611L119.611 27.1452C119.615 22.784 121.349 18.6025 124.433 15.5186C127.516 12.4353 131.697 10.7012 136.057 10.6968L136.06 10.6968C138.221 10.6937 140.362 11.1165 142.36 11.9411C144.359 12.7663 146.177 13.9776 147.707 15.5058C149.238 17.0341 150.453 18.8492 151.281 20.8472C152.11 22.8453 152.537 24.9872 152.537 27.1503V32.8728H140.799V27.1503C140.799 26.5304 140.676 25.9165 140.439 25.3439C140.201 24.7712 139.853 24.2511 139.415 23.8131C138.976 23.3751 138.455 23.028 137.882 22.7915ZM136.06 10.6968L136.057 10.6968Z" fill="#1F64E7"/>
<path d="M136.788 224.903C161.116 224.903 180.838 205.182 180.838 180.853C180.838 156.525 161.116 136.804 136.788 136.804C112.46 136.804 92.7383 156.525 92.7383 180.853C92.7383 205.182 112.46 224.903 136.788 224.903Z" fill="url(#paint2_linear_5_1128)"/>
<path d="M206.292 132.29V98.4946C206.292 80.061 198.969 62.3824 185.935 49.3479C172.9 36.3134 155.222 28.9907 136.788 28.9907C118.354 28.9907 100.676 36.3134 87.6414 49.3479C74.6069 62.3824 67.2842 80.061 67.2842 98.4946V132.29C67.285 140.054 65.0886 147.66 60.9489 154.228C56.8092 160.797 50.8951 166.059 43.8904 169.408C42.2805 170.175 40.9214 171.383 39.9715 172.893C39.0216 174.402 38.52 176.15 38.5249 177.933V178.116C38.5237 178.76 38.6496 179.398 38.8952 179.993C39.1408 180.589 39.5014 181.13 39.9564 181.586C40.4114 182.041 40.9518 182.403 41.5468 182.65C42.1417 182.897 42.7794 183.024 43.4234 183.024H230.144C230.788 183.024 231.425 182.897 232.02 182.65C232.615 182.403 233.156 182.041 233.611 181.586C234.066 181.13 234.426 180.589 234.672 179.993C234.917 179.398 235.043 178.76 235.042 178.116V177.933C235.043 176.155 234.54 174.414 233.592 172.91C232.644 171.406 231.29 170.202 229.686 169.436C222.677 166.085 216.76 160.818 212.62 154.244C208.48 147.67 206.286 140.058 206.292 132.29Z" fill="url(#paint3_linear_5_1128)"/>
<path fill-rule="evenodd" clip-rule="evenodd" d="M109.328 105.001C109.46 105.01 109.59 105.064 109.693 105.162L109.702 105.172L134.719 130.193C134.799 130.242 134.864 130.308 134.911 130.384L167.248 162.727C167.477 162.956 167.477 163.327 167.248 163.556C167.019 163.784 166.648 163.784 166.419 163.555L150.599 147.733C137.589 144.69 127.397 148.024 120.441 152.127C116.946 154.189 114.268 156.446 112.465 158.185C111.564 159.055 110.883 159.794 110.429 160.314C110.201 160.574 110.031 160.779 109.918 160.917L109.874 160.973V163.443C109.874 163.767 109.611 164.029 109.288 164.029C108.964 164.029 108.702 163.767 108.702 163.443V160.973C108.688 160.956 108.673 160.937 108.657 160.917C108.544 160.779 108.374 160.574 108.147 160.314C107.692 159.794 107.011 159.055 106.11 158.185C104.307 156.446 101.629 154.189 98.1332 152.127C91.1785 148.026 80.9877 144.692 67.9785 147.73L52.0004 163.711C51.7716 163.94 51.4005 163.94 51.1717 163.711C50.9428 163.482 50.9428 163.111 51.1716 162.883L67.2099 146.842C67.2402 146.802 67.2756 146.767 67.3153 146.736L83.665 130.384C83.7118 130.308 83.7762 130.242 83.8556 130.193L92.6256 121.422C92.6459 121.398 92.6684 121.375 92.6928 121.355L108.87 105.174C108.88 105.164 108.891 105.155 108.901 105.145C108.992 105.066 109.101 105.019 109.214 105.005C109.252 105 109.29 104.999 109.328 105.001ZM69.5024 146.206C82.0133 143.779 91.8939 147.087 98.7286 151.118C102.32 153.236 105.07 155.553 106.924 157.342C107.657 158.05 108.251 158.675 108.702 159.174V149.55C108.694 149.533 108.686 149.513 108.676 149.491C108.629 149.384 108.555 149.223 108.451 149.017C108.244 148.604 107.917 148.013 107.448 147.311C106.509 145.906 104.998 144.061 102.722 142.316C98.2086 138.856 90.6199 135.746 78.3438 137.364L69.5024 146.206ZM140.231 137.364L149.075 146.208C136.563 143.777 126.681 147.086 119.846 151.118C116.255 153.236 113.505 155.553 111.651 157.342C110.918 158.05 110.324 158.675 109.874 159.174V149.551C109.881 149.533 109.89 149.513 109.899 149.491C109.947 149.384 110.021 149.223 110.124 149.017C110.332 148.605 110.658 148.013 111.128 147.311C112.067 145.906 113.577 144.061 115.853 142.316C120.367 138.856 127.955 135.746 140.231 137.364ZM79.6818 136.025C91.3799 134.803 98.8476 137.869 103.435 141.386C105.83 143.221 107.424 145.167 108.422 146.66C108.521 146.808 108.614 146.951 108.702 147.09V138.199L108.701 138.198C108.633 138.101 108.53 137.959 108.392 137.778C108.116 137.417 107.703 136.905 107.157 136.311C106.064 135.12 104.447 133.603 102.352 132.297C98.2054 129.711 92.1756 127.936 84.5364 131.17L79.6818 136.025ZM108.02 135.518C108.274 135.795 108.502 136.056 108.702 136.293V126.477C108.666 126.419 108.617 126.342 108.555 126.249C108.401 126.018 108.167 125.689 107.852 125.307C107.221 124.542 106.271 123.572 104.996 122.748C102.49 121.128 98.6768 120.034 93.412 122.293L86.5009 129.205C93.4303 127.073 99.0179 128.837 102.972 131.303C105.18 132.679 106.876 134.271 108.02 135.518ZM95.3297 120.375C99.7997 119.143 103.231 120.212 105.632 121.764C106.996 122.645 108.015 123.674 108.702 124.496V107.001L95.3297 120.375ZM138.893 136.025L134.039 131.17C126.4 127.936 120.37 129.711 116.223 132.297C114.128 133.603 112.512 135.12 111.419 136.311C110.873 136.905 110.459 137.417 110.184 137.778C110.046 137.959 109.943 138.101 109.875 138.198L109.874 138.199V147.09C109.961 146.951 110.054 146.808 110.153 146.66C111.151 145.167 112.745 143.221 115.14 141.386C119.728 137.87 127.196 134.803 138.893 136.025ZM110.555 135.518C110.301 135.795 110.074 136.056 109.874 136.293V126.476C109.909 126.418 109.958 126.342 110.02 126.249C110.173 126.018 110.407 125.689 110.722 125.307C111.353 124.541 112.301 123.572 113.575 122.748C116.081 121.127 119.897 120.031 125.17 122.3L132.074 129.205C125.145 127.073 119.558 128.837 115.603 131.303C113.396 132.679 111.7 134.271 110.555 135.518ZM123.249 120.378L109.874 107.001V124.494C110.559 123.672 111.576 122.645 112.939 121.764C115.34 120.211 118.774 119.141 123.249 120.378Z" fill="url(#paint4_linear_5_1128)"/>
<path fill-rule="evenodd" clip-rule="evenodd" d="M174.729 103.958V0H175.901V103.958H174.729Z" fill="#1F64E7"/>
<path fill-rule="evenodd" clip-rule="evenodd" d="M165.188 97.4708C165.459 97.3646 165.764 97.498 165.87 97.7687L166.981 100.601L170.61 101.855C171.565 99.5229 173.315 97.9609 175.315 97.9609C177.317 97.9609 179.069 99.5266 180.023 101.863L183.676 100.601L184.787 97.7687C184.893 97.498 185.198 97.3646 185.469 97.4708C185.74 97.577 185.873 97.8825 185.767 98.1532L184.568 101.211C184.511 101.355 184.395 101.466 184.249 101.517L180.368 102.858C180.583 103.61 180.723 104.419 180.771 105.266L184.112 104.504C184.316 104.457 184.529 104.523 184.671 104.677L187.501 107.726C187.721 107.963 187.707 108.334 187.47 108.554C187.233 108.774 186.862 108.76 186.642 108.523L184.042 105.722L180.778 106.466C180.741 107.285 180.619 108.071 180.425 108.804L182.94 108.23C183.16 108.18 183.389 108.261 183.529 108.438L185.864 111.386C186.065 111.64 186.022 112.008 185.769 112.209C185.515 112.41 185.146 112.368 184.946 112.114L182.84 109.455L179.982 110.107C179.685 110.81 179.316 111.442 178.888 111.978C179.081 112.452 179.188 112.972 179.188 113.517C179.188 115.717 177.454 117.5 175.315 117.5C173.176 117.5 171.442 115.717 171.442 113.517C171.442 112.972 171.548 112.452 171.741 111.979C171.313 111.44 170.942 110.806 170.644 110.1L167.817 109.455L165.712 112.114C165.511 112.368 165.142 112.41 164.889 112.209C164.635 112.008 164.592 111.64 164.793 111.386L167.128 108.438C167.268 108.261 167.497 108.18 167.717 108.23L170.202 108.797C170.009 108.064 169.887 107.279 169.851 106.46L166.615 105.722L164.016 108.523C163.795 108.76 163.425 108.774 163.187 108.554C162.95 108.334 162.936 107.963 163.156 107.726L165.986 104.677C166.128 104.523 166.341 104.457 166.546 104.504L169.859 105.26C169.908 104.412 170.048 103.601 170.264 102.85L166.408 101.517C166.262 101.466 166.146 101.355 166.09 101.211L164.89 98.1532C164.784 97.8825 164.917 97.577 165.188 97.4708Z" fill="url(#paint5_linear_5_1128)"/>
<path d="M261.586 88.9435C261.638 88.8498 261.669 88.7461 261.679 88.6392C261.688 88.5324 261.674 88.4249 261.638 88.3237C261.603 88.2225 261.547 88.13 261.473 88.0522C261.399 87.9744 261.31 87.9131 261.211 87.8723C258.317 86.7186 248.081 83.2942 242.486 90.1979C238.743 94.7353 233.453 97.7262 227.635 98.594C227.489 98.6137 227.352 98.6771 227.242 98.776C227.132 98.8749 227.055 99.0046 227.02 99.1482C226.986 99.2917 226.995 99.4424 227.048 99.5805C227.1 99.7185 227.193 99.8374 227.315 99.9217C232.259 103.428 248.593 112.365 261.586 88.9435Z" fill="#1F64E7"/>
<path d="M44.7566 137.36C44.7979 137.285 44.8229 137.202 44.8299 137.116C44.8369 137.03 44.8258 136.944 44.7973 136.863C44.7688 136.782 44.7235 136.707 44.6645 136.645C44.6054 136.582 44.5339 136.533 44.4545 136.5C42.138 135.584 33.9067 132.837 29.411 138.331C26.4112 141.971 22.1721 144.374 17.5081 145.079C17.391 145.095 17.2814 145.145 17.1936 145.224C17.1059 145.304 17.0441 145.407 17.0164 145.522C16.9886 145.637 16.9963 145.758 17.0383 145.868C17.0803 145.979 17.1547 146.074 17.2517 146.141C21.198 148.998 34.3187 156.176 44.7566 137.36Z" fill="#1F64E7"/>
<path d="M239.064 126.974C239.029 126.912 239.008 126.842 239.002 126.77C238.996 126.699 239.005 126.627 239.03 126.559C239.054 126.491 239.092 126.43 239.142 126.378C239.193 126.327 239.253 126.286 239.32 126.26C241.261 125.482 248.137 123.184 251.891 127.817C254.408 130.865 257.963 132.874 261.872 133.457C261.975 133.466 262.073 133.508 262.152 133.577C262.23 133.645 262.285 133.737 262.308 133.838C262.332 133.94 262.322 134.046 262.282 134.142C262.241 134.238 262.171 134.319 262.082 134.372C258.768 136.744 247.789 142.741 239.064 126.974Z" fill="#1F64E7"/>
<path d="M4.10223 97.2598C4.04571 97.1551 4.01176 97.0397 4.00255 96.9212C3.99335 96.8026 4.00909 96.6833 4.04877 96.5712C4.08845 96.4591 4.15119 96.3565 4.23294 96.2701C4.31469 96.1836 4.41364 96.1153 4.52341 96.0695C7.72804 94.7968 19.0724 91.0062 25.2711 98.6423C29.4233 103.677 35.296 106.992 41.7521 107.945C41.9135 107.969 42.0641 108.04 42.1843 108.151C42.3045 108.261 42.3888 108.405 42.4263 108.564C42.4638 108.723 42.4527 108.889 42.3945 109.042C42.3364 109.194 42.2337 109.326 42.1 109.419C36.5972 113.301 18.4956 123.208 4.10223 97.2598Z" fill="#1F64E7"/>
<path d="M42.6312 67.5587C42.3164 66.324 43.4562 65.2115 44.6829 65.5563L52.9631 67.8831C54.1898 68.2278 54.5833 69.7712 53.6714 70.6612L47.5162 76.6686C46.6043 77.5586 45.071 77.1277 44.7561 75.893L42.6312 67.5587Z" fill="#1F64E7"/>
<path d="M232.932 26.9987C233.421 24.9717 236.304 24.9717 236.794 26.9987L238.441 33.8206C238.615 34.5449 239.181 35.1105 239.905 35.2853L246.727 36.9321C248.754 37.4214 248.754 40.3045 246.727 40.7938L239.905 42.4406C239.181 42.6154 238.615 43.181 238.441 43.9053L236.794 50.7272C236.304 52.7542 233.421 52.7542 232.932 50.7272L231.285 43.9053C231.11 43.181 230.545 42.6154 229.821 42.4406L222.999 40.7938C220.972 40.3045 220.972 37.4214 222.999 36.9321L229.821 35.2853C230.545 35.1105 231.11 34.5449 231.285 33.8206L232.932 26.9987Z" fill="#1F64E7"/>
<path d="M90.9321 223.999C91.4214 221.972 94.3045 221.972 94.7938 223.999L96.4406 230.821C96.6154 231.545 97.181 232.11 97.9053 232.285L104.727 233.932C106.754 234.421 106.754 237.304 104.727 237.794L97.9053 239.441C97.181 239.615 96.6154 240.181 96.4406 240.905L94.7938 247.727C94.3045 249.754 91.4214 249.754 90.9321 247.727L89.2853 240.905C89.1105 240.181 88.5449 239.615 87.8206 239.441L80.9987 237.794C78.9717 237.304 78.9717 234.421 80.9987 233.932L87.8206 232.285C88.5449 232.11 89.1105 231.545 89.2853 230.821L90.9321 223.999Z" fill="#1F64E7"/>
<path d="M64.3453 213.793C64.3453 216.307 62.3073 218.345 59.7934 218.345C57.2794 218.345 55.2414 216.307 55.2414 213.793C55.2414 211.279 57.2794 209.241 59.7934 209.241C62.3073 209.241 64.3453 211.279 64.3453 213.793Z" stroke="#1F64E7" stroke-width="2.48287"/>
<circle cx="66.7934" cy="34.7934" r="4.55192" stroke="#1F64E7" stroke-width="2.48287"/>
<circle cx="247.793" cy="204.793" r="4.55192" stroke="#1F64E7" stroke-width="2.48287"/>
</g>
<defs>
<filter id="filter0_d_5_1128" x="0" y="0" width="266.321" height="257.247" filterUnits="userSpaceOnUse" color-interpolation-filters="sRGB">
<feFlood flood-opacity="0" result="BackgroundImageFix"/>
<feColorMatrix in="SourceAlpha" type="matrix" values="0 0 0 0 0 0 0 0 0 0 0 0 0 0 0 0 0 0 127 0" result="hardAlpha"/>
<feOffset dy="4"/>
<feGaussianBlur stdDeviation="2"/>
<feComposite in2="hardAlpha" operator="out"/>
<feColorMatrix type="matrix" values="0 0 0 0 0 0 0 0 0 0 0 0 0 0 0 0 0 0 0.25 0"/>
<feBlend mode="normal" in2="BackgroundImageFix" result="effect1_dropShadow_5_1128"/>
<feBlend mode="normal" in="SourceGraphic" in2="effect1_dropShadow_5_1128" result="shape"/>
</filter>
<linearGradient id="paint0_linear_5_1128" x1="136.817" y1="-27.3495" x2="139.167" y2="375.463" gradientUnits="userSpaceOnUse">
<stop stop-color="#FFE1E1" stop-opacity="0"/>
<stop offset="1" stop-color="#FFE1E0"/>
</linearGradient>
<linearGradient id="paint1_linear_5_1128" x1="166.644" y1="190.948" x2="262.054" y2="201.849" gradientUnits="userSpaceOnUse">
<stop offset="0.0844027" stop-color="#1F64E7"/>
<stop offset="1" stop-color="#F5F6FF"/>
</linearGradient>
<linearGradient id="paint2_linear_5_1128" x1="211" y1="254.5" x2="75.5327" y2="108.135" gradientUnits="userSpaceOnUse">
<stop stop-color="#FFDEAC"/>
<stop offset="0.70369" stop-color="#1F64E7"/>
</linearGradient>
<linearGradient id="paint3_linear_5_1128" x1="164" y1="170.5" x2="121.55" y2="45.6981" gradientUnits="userSpaceOnUse">
<stop stop-color="#1F64E7"/>
<stop offset="1" stop-color="#FFE7DA"/>
</linearGradient>
<linearGradient id="paint4_linear_5_1128" x1="232.76" y1="240.143" x2="117.289" y2="83.0437" gradientUnits="userSpaceOnUse">
<stop stop-color="#1F64E7"/>
<stop offset="1" stop-color="#FFF6F5"/>
</linearGradient>
<linearGradient id="paint5_linear_5_1128" x1="207.394" y1="67.0002" x2="152.176" y2="100.953" gradientUnits="userSpaceOnUse">
<stop stop-color="#FFDEAC"/>
<stop offset="1" stop-color="#1F64E7"/>
</linearGradient>
</defs>
</svg>
